<svg width="38" height="36" viewBox="0 0 38 36" fill="#0765D3" xmlns="http://www.w3.org/2000/svg">
<path d="M0.21875 22.0859C0.21875 19.5547 0.710938 17.3047 1.69531 15.3359C2.67969 13.3516 4.09375 11.8281 5.9375 10.7656C7.78125 9.70312 9.94531 9.17188 12.4297 9.17188C16.2266 9.17188 19.2188 10.3516 21.4062 12.7109C23.5938 15.0547 24.6875 18.25 24.6875 22.2969V22.5781C24.6875 26.5312 23.5859 29.6719 21.3828 32C19.1953 34.3125 16.2266 35.4688 12.4766 35.4688C8.86719 35.4688 5.96875 34.3906 3.78125 32.2344C1.59375 30.0625 0.414062 27.125 0.242188 23.4219L0.21875 22.0859ZM8.11719 22.5781C8.11719 24.9219 8.48438 26.6406 9.21875 27.7344C9.95312 28.8281 11.0391 29.375 12.4766 29.375C15.2891 29.375 16.7266 27.2109 16.7891 22.8828V22.0859C16.7891 17.5391 15.3359 15.2656 12.4297 15.2656C9.78906 15.2656 8.35938 17.2266 8.14062 21.1484L8.11719 22.5781ZM36.0078 24.1953H29.6094L28.6016 0.875H37.0156L36.0078 24.1953ZM28.3672 31.4609C28.3672 30.3047 28.7812 29.3594 29.6094 28.625C30.4531 27.875 31.5 27.5 32.75 27.5C34 27.5 35.0391 27.875 35.8672 28.625C36.7109 29.3594 37.1328 30.3047 37.1328 31.4609C37.1328 32.6172 36.7109 33.5703 35.8672 34.3203C35.0391 35.0547 34 35.4219 32.75 35.4219C31.5 35.4219 30.4531 35.0547 29.6094 34.3203C28.7812 33.5703 28.3672 32.6172 28.3672 31.4609Z" fill="#0765D3"/>
</svg>