<svg xmlns="http://www.w3.org/2000/svg" viewBox="0 0 263.58 326.94"><defs><style>.cls-1{fill:#06c;}</style></defs><title>o-logo</title><g id="Layer_3" data-name="Layer 3"><path class="cls-1" d="M256.44,404c16.39,12.75,15.86,42.51-.32,52s-46.94,7-51.06-24.42S236.46,388.49,256.44,404Z" transform="translate(-32 -133.99)"/><path class="cls-1" d="M239,386.59c22.36,4.66,59-42.19,56.46-97.38s0-151-44.09-155.1-51.13,98.58-56.78,130.05C186.35,310.15,200.94,378.66,239,386.59Z" transform="translate(-32 -133.99)"/><path class="cls-1" d="M178.73,358.68C173.34,291.12,122,291.12,122,291.12c-14.91-13.64-29.5-6-29.5-6S35.68,306,32.2,371.09s39.64,78,65.65,79.89S184.12,426.24,178.73,358.68Zm-46-10.47c-2.54,26-15.54,41.87-16.81,42.5s-11.1,4.44-12.05-10.78,12.69-45,14.91-49.8a4.47,4.47,0,0,1,3.86-2.44,8.26,8.26,0,0,1,8.86,6.57A42,42,0,0,1,132.74,348.21Z" transform="translate(-32 -133.99)"/></g></svg>